<svg xmlns="http://www.w3.org/2000/svg" xmlns:xlink="http://www.w3.org/1999/xlink" width="800" height="521.04"><rect width="800" height="521.04" rx="0" ry="0" class="a"/><svg height="521.04" viewBox="0 0 80 52.104" width="800" xmlns="http://www.w3.org/2000/svg" xmlns:xlink="http://www.w3.org/1999/xlink"><style>@keyframes h{0%{transform:translateX(0)}.08%{transform:translateX(-80px)}.09%{transform:translateX(-160px)}14.55%{transform:translateX(-240px)}14.97%{transform:translateX(-320px)}16.95%{transform:translateX(-400px)}18.72%{transform:translateX(-480px)}19.49%{transform:translateX(-560px)}24.64%{transform:translateX(-640px)}26.15%{transform:translateX(-960px)}26.19%{transform:translateX(-1120px)}36.15%{transform:translateX(-1200px)}36.49%{transform:translateX(-1280px)}37.34%{transform:translateX(-1360px)}37.75%{transform:translateX(-1440px)}38.24%{transform:translateX(-1520px)}41.61%{transform:translateX(-1600px)}42.15%{transform:translateX(-1680px)}43.16%{transform:translateX(-1760px)}48.79%{transform:translateX(-1840px)}49.32%{transform:translateX(-1920px)}49.56%{transform:translateX(-2000px)}53.4%{transform:translateX(-2080px)}58.87%{transform:translateX(-2160px)}58.88%{transform:translateX(-2240px)}67.69%{transform:translateX(-2400px)}67.73%{transform:translateX(-2480px)}67.77%{transform:translateX(-2560px)}67.78%{transform:translateX(-2720px)}88.59%{transform:translateX(-2800px)}88.87%{transform:translateX(-2880px)}to{transform:translateX(-2960px)}}.a{fill:#224fbc}.c,.d,.e{white-space:pre}.c{fill:#25bc24;font-weight:700}.d,.e{fill:#fff}.e{fill:#492ee1;font-weight:700}</style><g font-family="Monaco,Consolas,Menlo,'Bitstream Vera Sans Mono','Powerline Symbols',monospace" font-size="1.67"><defs><symbol id="1"><text y="1.67" class="c">defan@rpi4-osmc</text><text x="15.03" y="1.67" class="d">:</text><text x="16.032" y="1.67" class="e">~</text><text x="17.034" y="1.67" class="d">$</text></symbol><symbol id="2"><text y="1.67" class="c">defan@rpi4-osmc</text><text x="15.03" y="1.67" class="d">:</text><text x="16.032" y="1.67" class="e">~</text><text x="17.034" y="1.67" class="d">$</text><text x="19.038" y="1.67" class="d">./uartLog.py</text></symbol><symbol id="3"><text y="1.67" class="d">This</text><text x="5.01" y="1.67" class="d">is</text><text x="8.016" y="1.67" class="d">a</text><text x="10.02" y="1.67" class="d">debug</text><text x="16.032" y="1.67" class="d">log</text></symbol><symbol id="4"><text y="1.67" class="d">This</text><text x="5.01" y="1.67" class="d">is</text><text x="8.016" y="1.67" class="d">an</text><text x="11.022" y="1.67" class="d">info</text><text x="16.032" y="1.67" class="d">log</text></symbol><symbol id="5"><text y="1.67" class="d">This</text><text x="5.01" y="1.67" class="d">is</text><text x="8.016" y="1.67" class="d">critical</text></symbol><symbol id="6"><text y="1.67" class="d">An</text><text x="3.006" y="1.67" class="d">error</text><text x="9.018" y="1.67" class="d">occurred</text></symbol><symbol id="7"><text y="1.67" class="d">/dev/ttyACM0</text><text x="13.026" y="1.67" class="d">-</text><text x="15.03" y="1.67" class="d">SONOFF</text><text x="22.044" y="1.67" class="d">Zigbee</text><text x="29.058" y="1.67" class="d">3.0</text><text x="33.066" y="1.67" class="d">USB</text><text x="37.074" y="1.67" class="d">Dongle</text><text x="44.088" y="1.67" class="d">Plus</text><text x="49.098" y="1.67" class="d">V2</text></symbol><symbol id="8"><text y="1.67" class="d">/dev/ttyAMA0</text><text x="13.026" y="1.67" class="d">-</text><text x="15.03" y="1.67" class="d">ttyAMA0</text></symbol><symbol id="9"><text y="1.67" class="d">enter</text><text x="6.012" y="1.67" class="d">full</text><text x="11.022" y="1.67" class="d">device</text><text x="18.036" y="1.67" class="d">name:</text><text x="24.048" y="1.67" class="d">/dev/ttyACM0</text></symbol><symbol id="10"><text y="1.67" class="d">&gt;&gt;&gt;&gt;&gt;&gt;&gt;&gt;&gt;&gt;&gt;&gt;&gt;&gt;&gt;&gt;</text><text x="17.034" y="1.67" class="d">/dev/ttyACM0</text><text x="30.06" y="1.67" class="d">is</text><text x="33.066" y="1.67" class="d">opened.....</text></symbol><symbol id="11"><text y="1.67" class="d">&lt;queue.Queue</text><text x="13.026" y="1.67" class="d">object</text><text x="20.04" y="1.67" class="d">at</text><text x="23.046" y="1.67" class="d">0xf7220e68&gt;</text></symbol><symbol id="12"><text y="1.67" class="d">&lt;queue.Queue</text><text x="13.026" y="1.67" class="d">object</text><text x="20.04" y="1.67" class="d">at</text><text x="23.046" y="1.67" class="d">0xf7220e98&gt;</text></symbol><symbol id="13"><text y="1.67" class="d">Write</text><text x="7.014" y="1.67" class="d">processing...</text></symbol><symbol id="14"><text y="1.67" class="d">Read</text><text x="5.01" y="1.67" class="d">processing...</text></symbol><symbol id="15"><text y="1.67" class="d">recv</text><text x="5.01" y="1.67" class="d">sp</text><text x="8.016" y="1.67" class="d">read</text><text x="13.026" y="1.67" class="d">tmplen</text><text x="21.042" y="1.67" class="d">b&apos;\r\nSonoff</text><text x="34.068" y="1.67" class="d">v1.0.1\r\n\x00\r\nGecko</text><text x="58.116" y="1.67" class="d">Bootloader</text><text x="69.138" y="1.67" class="d">v1.12.00\r\</text></symbol><symbol id="16"><text y="1.67" class="d">n1.</text><text x="4.008" y="1.67" class="d">upload</text><text x="11.022" y="1.67" class="d">gbl\r\n2.</text><text x="21.042" y="1.67" class="d">run\r\n3.</text><text x="31.062" y="1.67" class="d">ebl</text><text x="35.07" y="1.67" class="d">info\r\nBL</text><text x="46.092" y="1.67" class="d">&gt;</text><text x="48.096" y="1.67" class="d">\x00&apos;</text></symbol><symbol id="17"><text y="1.67" class="d">&lt;class</text><text x="7.014" y="1.67" class="d">&apos;bytes&apos;&gt;</text></symbol><symbol id="18"><text y="1.67" class="d">Log</text><text x="4.008" y="1.67" class="d">Print</text><text x="10.02" y="1.67" class="d">processing...</text></symbol><symbol id="19"><text y="1.67" class="d">2024-07-22</text><text x="11.022" y="1.67" class="d">00:34:13.471424</text><text x="27.054" y="1.67" class="d">[RX]</text><text x="32.064" y="1.67" class="d">:</text><text x="34.068" y="1.67" class="d">0D</text><text x="37.074" y="1.67" class="d">0A</text><text x="40.08" y="1.67" class="d">53</text><text x="43.086" y="1.67" class="d">6F</text><text x="46.092" y="1.67" class="d">6E</text><text x="49.098" y="1.67" class="d">6F</text><text x="52.104" y="1.67" class="d">66</text><text x="55.11" y="1.67" class="d">66</text><text x="58.116" y="1.67" class="d">20</text><text x="61.122" y="1.67" class="d">76</text><text x="64.128" y="1.67" class="d">31</text><text x="67.134" y="1.67" class="d">2E</text><text x="70.14" y="1.67" class="d">30</text><text x="73.146" y="1.67" class="d">2E</text><text x="76.152" y="1.67" class="d">31</text><text x="79.158" y="1.67" class="d">0</text></symbol><symbol id="20"><text y="1.67" class="d">D</text><text x="2.004" y="1.67" class="d">0A</text><text x="5.01" y="1.67" class="d">00</text><text x="8.016" y="1.67" class="d">0D</text><text x="11.022" y="1.67" class="d">0A</text><text x="14.028" y="1.67" class="d">47</text><text x="17.034" y="1.67" class="d">65</text><text x="20.04" y="1.67" class="d">63</text><text x="23.046" y="1.67" class="d">6B</text><text x="26.052" y="1.67" class="d">6F</text><text x="29.058" y="1.67" class="d">20</text><text x="32.064" y="1.67" class="d">42</text><text x="35.07" y="1.67" class="d">6F</text><text x="38.076" y="1.67" class="d">6F</text><text x="41.082" y="1.67" class="d">74</text><text x="44.088" y="1.67" class="d">6C</text><text x="47.094" y="1.67" class="d">6F</text><text x="50.1" y="1.67" class="d">61</text><text x="53.106" y="1.67" class="d">64</text><text x="56.112" y="1.67" class="d">65</text><text x="59.118" y="1.67" class="d">72</text><text x="62.124" y="1.67" class="d">20</text><text x="65.13" y="1.67" class="d">76</text><text x="68.136" y="1.67" class="d">31</text><text x="71.142" y="1.67" class="d">2E</text><text x="74.148" y="1.67" class="d">31</text><text x="77.154" y="1.67" class="d">32</text></symbol><symbol id="21"><text y="1.67" class="d">2E</text><text x="3.006" y="1.67" class="d">30</text><text x="6.012" y="1.67" class="d">30</text><text x="9.018" y="1.67" class="d">0D</text><text x="12.024" y="1.67" class="d">0A</text><text x="15.03" y="1.67" class="d">31</text><text x="18.036" y="1.67" class="d">2E</text><text x="21.042" y="1.67" class="d">20</text><text x="24.048" y="1.67" class="d">75</text><text x="27.054" y="1.67" class="d">70</text><text x="30.06" y="1.67" class="d">6C</text><text x="33.066" y="1.67" class="d">6F</text><text x="36.072" y="1.67" class="d">61</text><text x="39.078" y="1.67" class="d">64</text><text x="42.084" y="1.67" class="d">20</text><text x="45.09" y="1.67" class="d">67</text><text x="48.096" y="1.67" class="d">62</text><text x="51.102" y="1.67" class="d">6C</text><text x="54.108" y="1.67" class="d">0D</text><text x="57.114" y="1.67" class="d">0A</text><text x="60.12" y="1.67" class="d">32</text><text x="63.126" y="1.67" class="d">2E</text><text x="66.132" y="1.67" class="d">20</text><text x="69.138" y="1.67" class="d">72</text><text x="72.144" y="1.67" class="d">75</text><text x="75.15" y="1.67" class="d">6E</text><text x="78.156" y="1.67" class="d">0D</text></symbol><symbol id="22"><text x="1.002" y="1.67" class="d">0A</text><text x="4.008" y="1.67" class="d">33</text><text x="7.014" y="1.67" class="d">2E</text><text x="10.02" y="1.67" class="d">20</text><text x="13.026" y="1.67" class="d">65</text><text x="16.032" y="1.67" class="d">62</text><text x="19.038" y="1.67" class="d">6C</text><text x="22.044" y="1.67" class="d">20</text><text x="25.05" y="1.67" class="d">69</text><text x="28.056" y="1.67" class="d">6E</text><text x="31.062" y="1.67" class="d">66</text><text x="34.068" y="1.67" class="d">6F</text><text x="37.074" y="1.67" class="d">0D</text><text x="40.08" y="1.67" class="d">0A</text><text x="43.086" y="1.67" class="d">42</text><text x="46.092" y="1.67" class="d">4C</text><text x="49.098" y="1.67" class="d">20</text><text x="52.104" y="1.67" class="d">3E</text><text x="55.11" y="1.67" class="d">20</text><text x="58.116" y="1.67" class="d">00</text></symbol><symbol id="23"><text y="1.67" class="d">Sonoff</text><text x="7.014" y="1.67" class="d">v1.0.1</text></symbol><symbol id="24"><text y="1.67" class="d">Gecko</text><text x="6.012" y="1.67" class="d">Bootloader</text><text x="17.034" y="1.67" class="d">v1.12.00</text></symbol><symbol id="25"><text y="1.67" class="d">1.</text><text x="3.006" y="1.67" class="d">upload</text><text x="10.02" y="1.67" class="d">gbl</text></symbol><symbol id="26"><text y="1.67" class="d">2.</text><text x="3.006" y="1.67" class="d">run</text></symbol><symbol id="27"><text y="1.67" class="d">3.</text><text x="3.006" y="1.67" class="d">ebl</text><text x="7.014" y="1.67" class="d">info</text></symbol><symbol id="28"><text y="1.67" class="d">BL</text><text x="3.006" y="1.67" class="d">&gt;</text></symbol><symbol id="29"><text y="1.67" class="d">&gt;&gt;&gt;&gt;&gt;&gt;&gt;&gt;&gt;&gt;&gt;&gt;&gt;&gt;&gt;&gt;</text><text x="17.034" y="1.67" class="d">end</text></symbol><symbol id="a"><path fill="transparent" d="M0 0h80v24H0z"/></symbol><symbol id="b"><path fill="#929292" d="M0 0h1.102v2.171H0z"/></symbol></defs><path class="a" d="M0 0h80v52.104H0z"/><g style="animation-duration:23.938499s;animation-iteration-count:infinite;animation-name:h;animation-timing-function:steps(1,end)"><svg width="3040"><svg><use xlink:href="#a"/><use xlink:href="#b" x="-.004"/></svg><svg x="80"><use xlink:href="#a"/><use xlink:href="#b" x="-.004"/></svg><svg x="160"><use xlink:href="#a"/><use xlink:href="#b" x="18.996"/><use xlink:href="#1"/></svg><svg x="240"><use xlink:href="#a"/><use xlink:href="#b" x="19.996"/><text y="1.67" class="c">defan@rpi4-osmc</text><text x="15.03" y="1.67" class="d">:</text><text x="16.032" y="1.67" class="e">~</text><text x="17.034" y="1.67" class="d">$</text><text x="19.038" y="1.67" class="d">.</text></svg><svg x="320"><use xlink:href="#a"/><use xlink:href="#b" x="20.996"/><text y="1.67" class="c">defan@rpi4-osmc</text><text x="15.03" y="1.67" class="d">:</text><text x="16.032" y="1.67" class="e">~</text><text x="17.034" y="1.67" class="d">$</text><text x="19.038" y="1.67" class="d">./</text></svg><svg x="400"><use xlink:href="#a"/><use xlink:href="#b" x="21.996"/><text y="1.67" class="c">defan@rpi4-osmc</text><text x="15.03" y="1.67" class="d">:</text><text x="16.032" y="1.67" class="e">~</text><text x="17.034" y="1.67" class="d">$</text><text x="19.038" y="1.67" class="d">./u</text></svg><svg x="480"><use xlink:href="#a"/><use xlink:href="#b" x="22.996"/><text y="1.67" class="c">defan@rpi4-osmc</text><text x="15.03" y="1.67" class="d">:</text><text x="16.032" y="1.67" class="e">~</text><text x="17.034" y="1.67" class="d">$</text><text x="19.038" y="1.67" class="d">./ua</text></svg><svg x="560"><use xlink:href="#a"/><use xlink:href="#b" x="31.996"/><use xlink:href="#2"/></svg><svg x="640"><use xlink:href="#a"/><use xlink:href="#b" x="-.004" y="2.146"/><use xlink:href="#2"/></svg><svg x="720"><use xlink:href="#a"/><use xlink:href="#b" x="-.004" y="4.317"/><use xlink:href="#2"/><use xlink:href="#3" y="2.171"/></svg><svg x="800"><use xlink:href="#a"/><use xlink:href="#b" x="-.004" y="6.488"/><use xlink:href="#2"/><use xlink:href="#3" y="2.171"/><use xlink:href="#4" y="4.342"/></svg><svg x="880"><use xlink:href="#a"/><use xlink:href="#b" x="-.004" y="8.659"/><use xlink:href="#2"/><use xlink:href="#3" y="2.171"/><use xlink:href="#4" y="4.342"/><use xlink:href="#5" y="6.513"/></svg><svg x="960"><use xlink:href="#a"/><use xlink:href="#b" x="-.004" y="13.001"/><use xlink:href="#2"/><use xlink:href="#3" y="2.171"/><use xlink:href="#4" y="4.342"/><use xlink:href="#5" y="6.513"/><use xlink:href="#6" y="8.684"/></svg><svg x="1040"><use xlink:href="#a"/><use xlink:href="#b" x="-.004" y="17.343"/><use xlink:href="#2"/><use xlink:href="#3" y="2.171"/><use xlink:href="#4" y="4.342"/><use xlink:href="#5" y="6.513"/><use xlink:href="#6" y="8.684"/><use xlink:href="#7" y="13.026"/><use xlink:href="#8" y="15.197"/></svg><svg x="1120"><use xlink:href="#a"/><use xlink:href="#b" x="23.996" y="17.343"/><use xlink:href="#2"/><use xlink:href="#3" y="2.171"/><use xlink:href="#4" y="4.342"/><use xlink:href="#5" y="6.513"/><use xlink:href="#6" y="8.684"/><use xlink:href="#7" y="13.026"/><use xlink:href="#8" y="15.197"/><text y="19.038" class="d">enter</text><text x="6.012" y="19.038" class="d">full</text><text x="11.022" y="19.038" class="d">device</text><text x="18.036" y="19.038" class="d">name:</text></svg><svg x="1200"><use xlink:href="#a"/><use xlink:href="#b" x="24.996" y="17.343"/><use xlink:href="#2"/><use xlink:href="#3" y="2.171"/><use xlink:href="#4" y="4.342"/><use xlink:href="#5" y="6.513"/><use xlink:href="#6" y="8.684"/><use xlink:href="#7" y="13.026"/><use xlink:href="#8" y="15.197"/><text y="19.038" class="d">enter</text><text x="6.012" y="19.038" class="d">full</text><text x="11.022" y="19.038" class="d">device</text><text x="18.036" y="19.038" class="d">name:</text><text x="24.048" y="19.038" class="d">/</text></svg><svg x="1280"><use xlink:href="#a"/><use xlink:href="#b" x="25.996" y="17.343"/><use xlink:href="#2"/><use xlink:href="#3" y="2.171"/><use xlink:href="#4" y="4.342"/><use xlink:href="#5" y="6.513"/><use xlink:href="#6" y="8.684"/><use xlink:href="#7" y="13.026"/><use xlink:href="#8" y="15.197"/><text y="19.038" class="d">enter</text><text x="6.012" y="19.038" class="d">full</text><text x="11.022" y="19.038" class="d">device</text><text x="18.036" y="19.038" class="d">name:</text><text x="24.048" y="19.038" class="d">/d</text></svg><svg x="1360"><use xlink:href="#a"/><use xlink:href="#b" x="26.996" y="17.343"/><use xlink:href="#2"/><use xlink:href="#3" y="2.171"/><use xlink:href="#4" y="4.342"/><use xlink:href="#5" y="6.513"/><use xlink:href="#6" y="8.684"/><use xlink:href="#7" y="13.026"/><use xlink:href="#8" y="15.197"/><text y="19.038" class="d">enter</text><text x="6.012" y="19.038" class="d">full</text><text x="11.022" y="19.038" class="d">device</text><text x="18.036" y="19.038" class="d">name:</text><text x="24.048" y="19.038" class="d">/de</text></svg><svg x="1440"><use xlink:href="#a"/><use xlink:href="#b" x="27.996" y="17.343"/><use xlink:href="#2"/><use xlink:href="#3" y="2.171"/><use xlink:href="#4" y="4.342"/><use xlink:href="#5" y="6.513"/><use xlink:href="#6" y="8.684"/><use xlink:href="#7" y="13.026"/><use xlink:href="#8" y="15.197"/><text y="19.038" class="d">enter</text><text x="6.012" y="19.038" class="d">full</text><text x="11.022" y="19.038" class="d">device</text><text x="18.036" y="19.038" class="d">name:</text><text x="24.048" y="19.038" class="d">/dev</text></svg><svg x="1520"><use xlink:href="#a"/><use xlink:href="#b" x="28.996" y="17.343"/><use xlink:href="#2"/><use xlink:href="#3" y="2.171"/><use xlink:href="#4" y="4.342"/><use xlink:href="#5" y="6.513"/><use xlink:href="#6" y="8.684"/><use xlink:href="#7" y="13.026"/><use xlink:href="#8" y="15.197"/><text y="19.038" class="d">enter</text><text x="6.012" y="19.038" class="d">full</text><text x="11.022" y="19.038" class="d">device</text><text x="18.036" y="19.038" class="d">name:</text><text x="24.048" y="19.038" class="d">/dev/</text></svg><svg x="1600"><use xlink:href="#a"/><use xlink:href="#b" x="29.996" y="17.343"/><use xlink:href="#2"/><use xlink:href="#3" y="2.171"/><use xlink:href="#4" y="4.342"/><use xlink:href="#5" y="6.513"/><use xlink:href="#6" y="8.684"/><use xlink:href="#7" y="13.026"/><use xlink:href="#8" y="15.197"/><text y="19.038" class="d">enter</text><text x="6.012" y="19.038" class="d">full</text><text x="11.022" y="19.038" class="d">device</text><text x="18.036" y="19.038" class="d">name:</text><text x="24.048" y="19.038" class="d">/dev/t</text></svg><svg x="1680"><use xlink:href="#a"/><use xlink:href="#b" x="30.996" y="17.343"/><use xlink:href="#2"/><use xlink:href="#3" y="2.171"/><use xlink:href="#4" y="4.342"/><use xlink:href="#5" y="6.513"/><use xlink:href="#6" y="8.684"/><use xlink:href="#7" y="13.026"/><use xlink:href="#8" y="15.197"/><text y="19.038" class="d">enter</text><text x="6.012" y="19.038" class="d">full</text><text x="11.022" y="19.038" class="d">device</text><text x="18.036" y="19.038" class="d">name:</text><text x="24.048" y="19.038" class="d">/dev/tt</text></svg><svg x="1760"><use xlink:href="#a"/><use xlink:href="#b" x="31.996" y="17.343"/><use xlink:href="#2"/><use xlink:href="#3" y="2.171"/><use xlink:href="#4" y="4.342"/><use xlink:href="#5" y="6.513"/><use xlink:href="#6" y="8.684"/><use xlink:href="#7" y="13.026"/><use xlink:href="#8" y="15.197"/><text y="19.038" class="d">enter</text><text x="6.012" y="19.038" class="d">full</text><text x="11.022" y="19.038" class="d">device</text><text x="18.036" y="19.038" class="d">name:</text><text x="24.048" y="19.038" class="d">/dev/tty</text></svg><svg x="1840"><use xlink:href="#a"/><use xlink:href="#b" x="32.996" y="17.343"/><use xlink:href="#2"/><use xlink:href="#3" y="2.171"/><use xlink:href="#4" y="4.342"/><use xlink:href="#5" y="6.513"/><use xlink:href="#6" y="8.684"/><use xlink:href="#7" y="13.026"/><use xlink:href="#8" y="15.197"/><text y="19.038" class="d">enter</text><text x="6.012" y="19.038" class="d">full</text><text x="11.022" y="19.038" class="d">device</text><text x="18.036" y="19.038" class="d">name:</text><text x="24.048" y="19.038" class="d">/dev/ttyA</text></svg><svg x="1920"><use xlink:href="#a"/><use xlink:href="#b" x="33.996" y="17.343"/><use xlink:href="#2"/><use xlink:href="#3" y="2.171"/><use xlink:href="#4" y="4.342"/><use xlink:href="#5" y="6.513"/><use xlink:href="#6" y="8.684"/><use xlink:href="#7" y="13.026"/><use xlink:href="#8" y="15.197"/><text y="19.038" class="d">enter</text><text x="6.012" y="19.038" class="d">full</text><text x="11.022" y="19.038" class="d">device</text><text x="18.036" y="19.038" class="d">name:</text><text x="24.048" y="19.038" class="d">/dev/ttyAC</text></svg><svg x="2000"><use xlink:href="#a"/><use xlink:href="#b" x="34.996" y="17.343"/><use xlink:href="#2"/><use xlink:href="#3" y="2.171"/><use xlink:href="#4" y="4.342"/><use xlink:href="#5" y="6.513"/><use xlink:href="#6" y="8.684"/><use xlink:href="#7" y="13.026"/><use xlink:href="#8" y="15.197"/><text y="19.038" class="d">enter</text><text x="6.012" y="19.038" class="d">full</text><text x="11.022" y="19.038" class="d">device</text><text x="18.036" y="19.038" class="d">name:</text><text x="24.048" y="19.038" class="d">/dev/ttyACM</text></svg><svg x="2080"><use xlink:href="#a"/><use xlink:href="#b" x="35.996" y="17.343"/><use xlink:href="#2"/><use xlink:href="#3" y="2.171"/><use xlink:href="#4" y="4.342"/><use xlink:href="#5" y="6.513"/><use xlink:href="#6" y="8.684"/><use xlink:href="#7" y="13.026"/><use xlink:href="#8" y="15.197"/><use xlink:href="#9" y="17.368"/></svg><svg x="2160"><use xlink:href="#a"/><use xlink:href="#b" x="-.004" y="19.514"/><use xlink:href="#2"/><use xlink:href="#3" y="2.171"/><use xlink:href="#4" y="4.342"/><use xlink:href="#5" y="6.513"/><use xlink:href="#6" y="8.684"/><use xlink:href="#7" y="13.026"/><use xlink:href="#8" y="15.197"/><use xlink:href="#9" y="17.368"/></svg><svg x="2240"><use xlink:href="#a"/><use xlink:href="#b" x="-.004" y="21.685"/><use xlink:href="#2"/><use xlink:href="#3" y="2.171"/><use xlink:href="#4" y="4.342"/><use xlink:href="#5" y="6.513"/><use xlink:href="#6" y="8.684"/><use xlink:href="#7" y="13.026"/><use xlink:href="#8" y="15.197"/><use xlink:href="#9" y="17.368"/><use xlink:href="#10" y="19.539"/></svg><svg x="2320"><use xlink:href="#a"/><use xlink:href="#b" x="-.004" y="23.856"/><use xlink:href="#2"/><use xlink:href="#3" y="2.171"/><use xlink:href="#4" y="4.342"/><use xlink:href="#5" y="6.513"/><use xlink:href="#6" y="8.684"/><use xlink:href="#7" y="13.026"/><use xlink:href="#8" y="15.197"/><use xlink:href="#9" y="17.368"/><use xlink:href="#10" y="19.539"/><use xlink:href="#11" y="21.71"/></svg><svg x="2400"><use xlink:href="#a"/><use xlink:href="#b" x="-.004" y="26.027"/><use xlink:href="#2"/><use xlink:href="#3" y="2.171"/><use xlink:href="#4" y="4.342"/><use xlink:href="#5" y="6.513"/><use xlink:href="#6" y="8.684"/><use xlink:href="#7" y="13.026"/><use xlink:href="#8" y="15.197"/><use xlink:href="#9" y="17.368"/><use xlink:href="#10" y="19.539"/><use xlink:href="#11" y="21.71"/><use xlink:href="#12" y="23.881"/></svg><svg x="2480"><use xlink:href="#a"/><use xlink:href="#b" x="-.004" y="41.224"/><use xlink:href="#2"/><use xlink:href="#3" y="2.171"/><use xlink:href="#4" y="4.342"/><use xlink:href="#5" y="6.513"/><use xlink:href="#6" y="8.684"/><use xlink:href="#7" y="13.026"/><use xlink:href="#8" y="15.197"/><use xlink:href="#9" y="17.368"/><use xlink:href="#10" y="19.539"/><use xlink:href="#11" y="21.71"/><use xlink:href="#12" y="23.881"/><use xlink:href="#13" y="26.052"/><use xlink:href="#13" y="28.223"/><use xlink:href="#14" y="30.394"/><use xlink:href="#15" y="32.565"/><use xlink:href="#16" y="34.736"/><use xlink:href="#17" y="36.907"/><use xlink:href="#18" y="39.078"/></svg><svg x="2560"><use xlink:href="#a"/><use xlink:href="#b" x="-.004" y="43.395"/><use xlink:href="#2"/><use xlink:href="#3" y="2.171"/><use xlink:href="#4" y="4.342"/><use xlink:href="#5" y="6.513"/><use xlink:href="#6" y="8.684"/><use xlink:href="#7" y="13.026"/><use xlink:href="#8" y="15.197"/><use xlink:href="#9" y="17.368"/><use xlink:href="#10" y="19.539"/><use xlink:href="#11" y="21.71"/><use xlink:href="#12" y="23.881"/><use xlink:href="#13" y="26.052"/><use xlink:href="#13" y="28.223"/><use xlink:href="#14" y="30.394"/><use xlink:href="#15" y="32.565"/><use xlink:href="#16" y="34.736"/><use xlink:href="#17" y="36.907"/><use xlink:href="#18" y="39.078"/><use xlink:href="#17" y="41.249"/></svg><svg x="2640"><use xlink:href="#a"/><use xlink:href="#b" x="-.004" y="49.908"/><use xlink:href="#3"/><use xlink:href="#4" y="2.171"/><use xlink:href="#5" y="4.342"/><use xlink:href="#6" y="6.513"/><use xlink:href="#7" y="10.855"/><use xlink:href="#8" y="13.026"/><use xlink:href="#9" y="15.197"/><use xlink:href="#10" y="17.368"/><use xlink:href="#11" y="19.539"/><use xlink:href="#12" y="21.71"/><use xlink:href="#13" y="23.881"/><use xlink:href="#13" y="26.052"/><use xlink:href="#14" y="28.223"/><use xlink:href="#15" y="30.394"/><use xlink:href="#16" y="32.565"/><use xlink:href="#17" y="34.736"/><use xlink:href="#18" y="36.907"/><use xlink:href="#17" y="39.078"/><use xlink:href="#19" y="41.249"/><use xlink:href="#20" y="43.42"/><use xlink:href="#21" y="45.591"/><use xlink:href="#22" y="47.762"/></svg><svg x="2720"><use xlink:href="#a"/><use xlink:href="#b" x="-.004" y="49.908"/><use xlink:href="#9"/><use xlink:href="#10" y="2.171"/><use xlink:href="#11" y="4.342"/><use xlink:href="#12" y="6.513"/><use xlink:href="#13" y="8.684"/><use xlink:href="#13" y="10.855"/><use xlink:href="#14" y="13.026"/><use xlink:href="#15" y="15.197"/><use xlink:href="#16" y="17.368"/><use xlink:href="#17" y="19.539"/><use xlink:href="#18" y="21.71"/><use xlink:href="#17" y="23.881"/><use xlink:href="#19" y="26.052"/><use xlink:href="#20" y="28.223"/><use xlink:href="#21" y="30.394"/><use xlink:href="#22" y="32.565"/><use xlink:href="#23" y="34.736"/><use xlink:href="#24" y="39.078"/><use xlink:href="#25" y="41.249"/><use xlink:href="#26" y="43.42"/><use xlink:href="#27" y="45.591"/><use xlink:href="#28" y="47.762"/></svg><svg x="2800"><use xlink:href="#a"/><use xlink:href="#b" x="-.004" y="49.908"/><use xlink:href="#10"/><use xlink:href="#11" y="2.171"/><use xlink:href="#12" y="4.342"/><use xlink:href="#13" y="6.513"/><use xlink:href="#13" y="8.684"/><use xlink:href="#14" y="10.855"/><use xlink:href="#15" y="13.026"/><use xlink:href="#16" y="15.197"/><use xlink:href="#17" y="17.368"/><use xlink:href="#18" y="19.539"/><use xlink:href="#17" y="21.71"/><use xlink:href="#19" y="23.881"/><use xlink:href="#20" y="26.052"/><use xlink:href="#21" y="28.223"/><use xlink:href="#22" y="30.394"/><use xlink:href="#23" y="32.565"/><use xlink:href="#24" y="36.907"/><use xlink:href="#25" y="39.078"/><use xlink:href="#26" y="41.249"/><use xlink:href="#27" y="43.42"/><use xlink:href="#28" y="45.591"/><use xlink:href="#29" y="47.762"/></svg><svg x="2880"><use xlink:href="#a"/><use xlink:href="#b" x="18.996" y="49.908"/><use xlink:href="#10"/><use xlink:href="#11" y="2.171"/><use xlink:href="#12" y="4.342"/><use xlink:href="#13" y="6.513"/><use xlink:href="#13" y="8.684"/><use xlink:href="#14" y="10.855"/><use xlink:href="#15" y="13.026"/><use xlink:href="#16" y="15.197"/><use xlink:href="#17" y="17.368"/><use xlink:href="#18" y="19.539"/><use xlink:href="#17" y="21.71"/><use xlink:href="#19" y="23.881"/><use xlink:href="#20" y="26.052"/><use xlink:href="#21" y="28.223"/><use xlink:href="#22" y="30.394"/><use xlink:href="#23" y="32.565"/><use xlink:href="#24" y="36.907"/><use xlink:href="#25" y="39.078"/><use xlink:href="#26" y="41.249"/><use xlink:href="#27" y="43.42"/><use xlink:href="#28" y="45.591"/><use xlink:href="#29" y="47.762"/><use xlink:href="#1" y="49.933"/></svg><svg x="2960"><use xlink:href="#a"/><use xlink:href="#b" x="-.004" y="49.908"/><use xlink:href="#12"/><use xlink:href="#13" y="2.171"/><use xlink:href="#13" y="4.342"/><use xlink:href="#14" y="6.513"/><use xlink:href="#15" y="8.684"/><use xlink:href="#16" y="10.855"/><use xlink:href="#17" y="13.026"/><use xlink:href="#18" y="15.197"/><use xlink:href="#17" y="17.368"/><use xlink:href="#19" y="19.539"/><use xlink:href="#20" y="21.71"/><use xlink:href="#21" y="23.881"/><use xlink:href="#22" y="26.052"/><use xlink:href="#23" y="28.223"/><use xlink:href="#24" y="32.565"/><use xlink:href="#25" y="34.736"/><use xlink:href="#26" y="36.907"/><use xlink:href="#27" y="39.078"/><use xlink:href="#28" y="41.249"/><use xlink:href="#29" y="43.42"/><use xlink:href="#1" y="45.591"/><text y="49.432" class="d">exit</text></svg></svg></g></g></svg></svg>